<?xml version="1.0" encoding="utf-8"?>
<!-- Generator: Adobe Illustrator 24.3.0, SVG Export Plug-In . SVG Version: 6.00 Build 0)  -->
<svg version="1.1"
	 id="svg30" xmlns:cc="http://creativecommons.org/ns#" xmlns:dc="http://purl.org/dc/elements/1.1/" xmlns:inkscape="http://www.inkscape.org/namespaces/inkscape" xmlns:rdf="http://www.w3.org/1999/02/22-rdf-syntax-ns#" xmlns:sodipodi="http://sodipodi.sourceforge.net/DTD/sodipodi-0.dtd" xmlns:svg="http://www.w3.org/2000/svg"
	 xmlns="http://www.w3.org/2000/svg" xmlns:xlink="http://www.w3.org/1999/xlink" x="0px" y="0px" viewBox="0 0 93.5 110"
	 style="enable-background:new 0 0 93.5 110;" xml:space="preserve">
<sodipodi:namedview  bordercolor="#666666" borderopacity="1" fit-margin-bottom="10" fit-margin-left="10" fit-margin-right="10" fit-margin-top="10" gridtolerance="10" guidetolerance="10" id="namedview32" inkscape:current-layer="svg30" inkscape:cx="46.767" inkscape:cy="42.5" inkscape:pageopacity="0" inkscape:pageshadow="2" inkscape:window-height="480" inkscape:window-maximized="0" inkscape:window-width="640" inkscape:window-x="0" inkscape:window-y="0" inkscape:zoom="1.888" objecttolerance="10" pagecolor="#ffffff" showgrid="false">
	</sodipodi:namedview>
<g id="g24" transform="translate(-3.233,5)">
	<path id="path2" inkscape:connector-curvature="0" d="M59.6,75.1v-2.8c0-5,2-9.7,5.5-13.1C69.6,55,72,49.4,72,43.3
		c0-12.1-9.9-22-22-22c-0.8,0-1.7,0-2.5,0.1c-10.5,1.2-18.9,10-19.4,20.6c-0.4,6.4,2.1,12.6,6.6,17c3.6,3.5,5.7,8.3,5.7,13.2v2.8
		c0,3,2.4,5.4,5.4,5.4h8.4C57.2,80.5,59.6,78.1,59.6,75.1z M55.6,75.1c0,0.8-0.6,1.4-1.4,1.4h-8.4c-0.8,0-1.4-0.6-1.4-1.4v-2.8
		c0-6-2.5-11.8-6.9-16.1c-3.7-3.6-5.7-8.7-5.4-13.9c0.5-8.7,7.3-15.9,15.9-16.8c0.7-0.1,1.4-0.1,2.1-0.1c9.9,0,18,8.1,18,18
		c0,5-2,9.6-5.6,13c-4.3,4.1-6.8,9.9-6.8,16L55.6,75.1L55.6,75.1z"/>
	<path id="path4" inkscape:connector-curvature="0" d="M56.5,82.5h-13c-0.8,0-1.5,0.7-1.5,1.5s0.7,1.5,1.5,1.5h13
		c0.8,0,1.5-0.7,1.5-1.5S57.3,82.5,56.5,82.5z"/>
	<path id="path6" inkscape:connector-curvature="0" d="M58,88.8c0-0.8-0.7-1.5-1.5-1.5h-13c-0.8,0-1.5,0.7-1.5,1.5s0.7,1.5,1.5,1.5
		h13C57.3,90.3,58,89.6,58,88.8z"/>
	<path id="path8" inkscape:connector-curvature="0" d="M14.7,43.3h8.6c0.8,0,1.5-0.7,1.5-1.5s-0.7-1.5-1.5-1.5h-8.6
		c-0.8,0-1.5,0.7-1.5,1.5S13.9,43.3,14.7,43.3z"/>
	<path id="path10" inkscape:connector-curvature="0" d="M86.8,41.8c0-0.8-0.7-1.5-1.5-1.5h-8.6c-0.8,0-1.5,0.7-1.5,1.5
		s0.7,1.5,1.5,1.5h8.6C86.1,43.3,86.8,42.6,86.8,41.8z"/>
	<path id="path12" inkscape:connector-curvature="0" d="M48.5,6.5v8.6c0,0.8,0.7,1.5,1.5,1.5s1.5-0.7,1.5-1.5V6.5
		C51.5,5.7,50.8,5,50,5S48.5,5.7,48.5,6.5z"/>
	<path id="path14" inkscape:connector-curvature="0" d="M73.9,15.8l-6.1,6.1c-0.6,0.6-0.6,1.5,0,2.1c0.3,0.3,0.7,0.4,1.1,0.4
		c0.4,0,0.8-0.1,1.1-0.4l6.1-6.1c0.6-0.6,0.6-1.5,0-2.1C75.4,15.2,74.5,15.2,73.9,15.8z"/>
	<path id="path16" inkscape:connector-curvature="0" d="M32.2,59.5c-0.6-0.6-1.5-0.6-2.1,0L24,65.6c-0.6,0.6-0.6,1.5,0,2.1
		c0.3,0.3,0.7,0.4,1.1,0.4s0.8-0.1,1.1-0.4l6.1-6.1C32.8,61.1,32.8,60.1,32.2,59.5z"/>
	<path id="path18" inkscape:connector-curvature="0" d="M30.1,24c0.3,0.3,0.7,0.4,1.1,0.4s0.8-0.1,1.1-0.4c0.6-0.6,0.6-1.5,0-2.1
		l-6.1-6.1c-0.6-0.6-1.5-0.6-2.1,0c-0.6,0.6-0.6,1.5,0,2.1L30.1,24z"/>
	<path id="path20" inkscape:connector-curvature="0" d="M73.9,67.8c0.3,0.3,0.7,0.4,1.1,0.4c0.4,0,0.8-0.1,1.1-0.4
		c0.6-0.6,0.6-1.5,0-2.1l-6.1-6.1c-0.6-0.6-1.5-0.6-2.1,0s-0.6,1.5,0,2.1L73.9,67.8z"/>
	<path id="path22" inkscape:connector-curvature="0" d="M54.8,93.5c0-0.8-0.7-1.5-1.5-1.5h-6.5c-0.8,0-1.5,0.7-1.5,1.5
		s0.7,1.5,1.5,1.5h6.5C54.1,95,54.8,94.3,54.8,93.5z"/>
</g>
<path d="M50.2,78.5c0,0.6-0.5,1.1-1.1,1.1h-4.6c-0.6,0-1.1-0.5-1.1-1.1v-2.2c0-4.7-3-14.4-6.5-17.7c-3-2.9-4.5-6.9-4.3-11
	c0.4-6.9,5.8-12.6,12.6-13.3c0.5-0.1,1.1-0.1,1.6-0.1c7.9,0,14.3,6.4,14.3,14.3c0,3.9-1.6,7.6-4.4,10.3c-3.4,3.2-6.4,12.9-6.4,17.7
	L50.2,78.5L50.2,78.5"/>
</svg>
