<?xml version="1.0" encoding="utf-8"?>
<!-- Generator: Adobe Illustrator 24.3.0, SVG Export Plug-In . SVG Version: 6.00 Build 0)  -->
<svg version="1.1" id="Ebene_1" xmlns="http://www.w3.org/2000/svg" xmlns:xlink="http://www.w3.org/1999/xlink" x="0px" y="0px"
	 viewBox="0 0 340.5 338.1" style="enable-background:new 0 0 340.5 338.1;" xml:space="preserve">
<style type="text/css">
	.st0{fill:#AAA;}
</style>
<g>
	<path class="st0" d="M200.4,318.4c-0.8,0-1.6-0.2-2.6-0.6C145,297.7,92,277.6,40.3,258c-2.9-1.1-4.9-2.8-6.2-5.4
		c-2.4-4.8-5.1-9.7-8.1-14.9c-1.5-2.7-1.5-5.1,0-7.8c4-7,7.9-13.9,12-21.2c1-1.8,2.1-3.7,3.1-5.6c-0.9-0.3-1.8-0.7-2.7-1
		c-4.4-1.7-8.5-3.2-12.8-4.7c-2.7-0.9-4.2-2.7-4.5-5.5c-0.1-1.2-0.3-2.3-0.4-3.5c-0.3-3.1-0.7-6.3-0.9-9.4c-0.1-1.7,0.8-4.1,2.4-5.2
		c3.5-2.3,7-4.6,10.5-6.9c10.7-7.1,21.7-14.4,33-21c8.1-4.7,14.1-11.3,19.5-21.3c11-20.3,22.5-40.7,33.6-60.5
		c4.3-7.6,8.6-15.2,12.8-22.9c1.4-2.5,2.8-5,4.2-7.4c2.1-3.7,4.2-7.4,6.2-11.1c0.4-0.8,1.6-2.9,4.4-2.9c0.4,0,0.9,0.1,1.4,0.2
		c12,2.7,24.2,5.4,36,8c6.4,1.4,12.9,2.9,19.3,4.3c10.5,2.3,20.9,4.7,31.4,7c23.5,5.2,47,10.5,70.5,15.7c3,0.7,5,2.1,6.3,4.7
		c2.6,5.2,5.4,10.3,8.2,15.2c1.5,2.7,1.6,5.1,0.2,8c-6,12-12,24.2-17.9,36l-3.8,7.8c-0.1,0.1-0.1,0.2-0.2,0.4c3.6,1.3,3.8,5,3.9,7.1
		c0,0.5,0,0.9,0.1,1.4c0.1,0.7,0.1,1.4,0.2,2c0.1,1.5,0.2,2.9,0.5,4.1c1.5,5.4-1.3,8.6-3.8,10.8c-8.2,7-15.4,13.5-22.2,20
		c-1.8,1.8-3.2,4.4-4.4,6.7c-15,30.3-30.3,61.2-45,91l-12.4,25.1c-1,2-2,4.1-3,6.1c-2.2,4.5-4.6,9.1-6.7,13.7
		C204.4,315.9,203.2,318.4,200.4,318.4z M35,240c1.3,2.4,2.7,4.9,3.9,7.4c1.2,2.6,2.9,4.1,6,5.3c37,14,74.5,28.2,110.8,42l29.7,11.3
		c2.8,1.1,5.6,2.1,8.5,3.2c0-0.1-0.1-0.2-0.1-0.2c-1.6-3.1-3.3-6.2-5.1-9.2c-0.6-1.1-1.8-2.1-2.7-2.4
		c-43.2-16.5-87.2-33.2-129.7-49.3l-15.5-5.9C38.8,241.4,36.9,240.7,35,240z M301.2,78c-3.9,7.8-7.7,15.7-11.6,23.5
		c-4.9,9.8-9.7,19.6-14.6,29.4c-7.5,15-14.9,30-22.3,45c-2.8,5.7-5.6,11.5-8.4,17.1c-2.5,5.2-5.1,10.5-7.7,15.7l-1.3,2.7
		c-13.1,26.4-26.5,53.8-40,80.6c-1.3,2.6-1.3,4.3,0.2,6.6c1.8,2.9,3.4,5.9,5,9.1c0.1,0.2,0.2,0.4,0.3,0.6c1.3-2.6,2.5-5.1,3.8-7.7
		c1.4-2.8,2.8-5.6,4.2-8.4l19.8-39.8c14.5-29.2,28.9-58.3,43.4-87.5c3-6,6-12.1,8.8-18.1c2.5-5.1,5-10.2,7.5-15.3
		c3.8-7.7,7.6-15.3,11.4-23c4.5-9.2,9.1-18.4,13.6-27.6c0.6-1.3,0.8-1.8,0.8-2.1c-2-4-4.1-7.9-6.4-12.1c-0.1-0.3-0.3-0.5-0.4-0.8
		C305.1,69.9,303.1,74,301.2,78z M32.5,231.9c0.8,0.3,1.4,0.6,2.2,0.9c10.6,4,21.2,8,31.8,12.1c11.7,4.5,23.5,8.9,35.2,13.4l2.7,1
		c27.3,10.4,55.6,21.1,83.3,31.7c0.4,0.1,0.6,0.2,0.7,0.2c0.1-0.1,0.2-0.3,0.3-0.6c16.7-34.1,33.8-68.7,50.4-102.2l0.3-0.5
		c3.9-7.9,7.8-15.8,11.8-23.8c2.9-5.9,5.9-11.9,8.8-17.8c12.6-25.5,25.3-51.1,37.9-76.6c1.2-2.4,2.4-4.9,3.6-7.4l0.6-1.3
		c-0.3-0.1-0.5-0.1-0.8-0.2c-11.7-2.6-23.4-5.2-35.1-7.8c-23.3-5.2-46.6-10.4-69.9-15.6c-16.2-3.6-31.9-7.2-46.8-10.7
		c-0.5-0.1-0.9-0.2-1.3-0.2c-0.5,0-0.9,0-1.7,1.5c-2.2,4.3-4.6,8.5-6.9,12.6c-1,1.7-1.9,3.4-2.9,5l-10.7,19
		c-11.2,20-22.4,40-33.6,60c-1.1,1.9-2.2,3.9-3.2,5.8c0.4-0.3,0.8-0.5,1.2-0.8c0.3-0.2,0.6-0.4,0.8-0.6c1.4-1,2.9-2,3.5-3.2
		c15.9-28.2,32.7-58.2,51.2-91.5c1-1.8,2.5-3.8,5.7-3.8c0.7,0,1.4,0.1,2.3,0.3c16.8,3.9,33.9,7.7,50.5,11.4l3.5,0.8
		c27,6,55.8,12.4,84,18.6c1.5,0.3,3.4,0.9,4.1,2.7c0.8,1.9-0.4,3.9-0.9,4.5c-0.1,0.2-0.2,0.5-0.4,0.7c-0.1,0.2-0.2,0.4-0.3,0.6
		l-61.2,123.9c-14.4,29.1-29.2,59.1-43.8,88.7c-0.5,1.1-1.8,3.7-4.8,3.7c-0.8,0-1.7-0.2-2.8-0.6c-28.3-10.8-57.2-21.8-85.1-32.4
		l-23.7-9c-3.2-1.2-6.4-2.4-9.6-3.7c-7.2-2.8-14.7-5.6-22-8.3c-1.1-0.4-2.7-1.2-3.2-2.9c-0.6-1.8,0.5-3.5,0.9-4
		c0.6-0.9,1.1-1.8,1.6-2.8c0.2-0.4,0.4-0.8,0.7-1.2l8.5-15.2c-0.5-0.2-1-0.4-1.4-0.7c-0.6-0.4-1-0.4-1-0.4l0,0c0,0-0.3,0.2-0.7,1.1
		c-0.8,1.7-1.7,3.2-2.6,4.7c-0.4,0.7-0.8,1.3-1.1,2L32.5,231.9z M63.5,234.5l28.6,10.9c29.9,11.4,60.9,23.1,91.3,34.7
		c0.4,0.2,0.7,0.2,0.8,0.2c0.1-0.1,0.2-0.3,0.5-0.8c5.2-10.6,10.5-21.4,15.7-31.9c1.7-3.5,3.5-7.1,5.2-10.6
		c-5.7,5.2-11.6,10.5-17.3,15.8c-0.9,0.8-2.4,2-4.5,2c-0.8,0-1.7-0.2-2.6-0.5c-11.7-4.4-23.7-8.7-35.2-12.9
		c-5.2-1.9-10.5-3.8-15.7-5.7l-4.3-1.6c-16.9-6.2-34.3-12.6-51.4-18.9c-0.3-0.1-0.5-0.2-0.6-0.2c-0.1,0.1-0.2,0.3-0.4,0.6
		c-2.2,4-4.4,8-6.6,11.9c-1.2,2.2-2.5,4.5-3.7,6.7c0,0,0,0,0,0.1C63.2,234.4,63.4,234.4,63.5,234.5z M26.7,182.1
		c0.3,2.7,0.6,5.2,0.7,7.8c0.1,1,0.2,1.2,1.3,1.6c11.8,4.3,23.8,8.7,35.4,12.9l35.1,12.9c26.9,9.9,53.8,19.7,80.7,29.6
		c0.2,0.1,0.4,0.1,0.5,0.2c0-0.1,0-0.1,0-0.2c-0.3-2.7-0.6-5.3-0.8-7.9c-0.1-0.9-0.2-1.1-1.2-1.5c-8.4-3-16.8-6.1-25-9.1L35.1,185
		c-2.6-0.9-5.1-1.9-7.8-2.8L26.7,182.1C26.7,182,26.7,182.1,26.7,182.1z M186,237.1c0.3,2.6,0.6,5.2,0.9,8c0.8-0.7,1.6-1.5,2.4-2.2
		c1.9-1.7,3.9-3.5,5.8-5.3l1.2-1.1c10.6-9.2,20.6-17.8,24.9-31.2c0.1-0.3,0.2-0.6,0.3-0.9c-11.7,10.7-23.7,21.6-35.5,32.3
		C186.1,236.9,186,237,186,237.1z M46.4,227.8c3.9,1.4,7.5,2.8,11.3,4c3.1-5.5,6.2-10.9,9.4-16.6l1.3-2.2c-0.6-0.2-1.2-0.5-1.8-0.7
		c-3.5-1.3-6.9-2.5-10.2-3.8c-0.3-0.1-0.5-0.2-0.6-0.2c-0.1,0.1-0.2,0.2-0.3,0.5c-2.3,4.2-4.7,8.5-7,12.6c-1.1,2-2.2,3.9-3.3,5.9
		L46.4,227.8z M30.1,176.2c5.1,1.9,10.3,3.7,15.4,5.6c9.3,3.4,18.5,6.7,27.8,10.1l4,1.5c33.5,12.3,68.1,25,102.1,37.6
		c0.8,0.3,1.4,0.4,1.9,0.4l0,0c0.7,0,1.4-0.2,2.6-1.4c2.2-2,4.3-4,6.5-6c11.4-10.5,23.1-21.4,35-31.7c3.6-3.1,5.7-7,7.7-11.1
		c-7.1,6.5-14.1,12.9-21.2,19.4c-9.2,8.4-18.5,16.9-27.7,25.3c-0.9,0.8-2.3,1.9-4.3,1.9c-0.8,0-1.7-0.2-2.6-0.5
		c-5.9-2.2-11.9-4.4-17.8-6.6c-2.3-0.8-4.6-1.7-6.9-2.5l-19-6.9C106,201,78.4,190.9,50.8,180.7c-2-0.7-3.9-1.6-5.9-2.5
		c-1-0.4-2.1-0.9-3.2-1.4l-3.7-1.6l3.3-2.4c0.7-0.5,1.4-1,2-1.5c1.3-1,2.4-1.8,3.6-2.6c5.4-3.5,10.8-6.9,16.2-10.3
		c6.3-4,12.6-8,18.9-12.1c6.7-4.3,13.3-8.6,20-12.9c13.5-8.7,27.5-17.7,41.3-26.5c1.2-0.8,2.8-1.2,4.5-1.2c0.6,0,1.1,0.1,1.6,0.2
		c16.8,3.4,33.9,6.9,50.4,10.3l21.8,4.5c12.1,2.5,24.3,5,36.4,7.5c0.3,0.1,0.6,0.1,0.9,0.1c0.1,0,0.2,0,0.3,0
		c0.5-0.7,0.9-1.5,1.3-2.3l-26.7-5.5c-28.3-5.9-57.6-11.9-86.4-17.8c-0.2,0-0.5-0.1-0.8-0.1c-1,0-2.1,0.3-2.8,0.7
		c-14.1,8.9-28.4,18.1-42.1,26.9c0,0-24.1,15.5-32.6,20.9C57,159,44.9,166.8,32.8,174.6C31.9,175.2,31,175.7,30.1,176.2z
		 M81.6,185.8c5.7,2.1,11.4,4.2,17.2,6.3l16.6,6.1c20.2,7.4,41.1,15.1,61.6,22.7c0.8,0.3,1.5,0.5,2.1,0.5l0,0c0.8,0,1.7-0.3,3.1-1.6
		c13.2-12.1,26.6-24.2,39.7-36c5.4-4.9,10.9-9.8,16.3-14.8c0.2-0.2,0.4-0.4,0.7-0.6c0.7-0.6,1.4-1.2,1.7-1.8
		c2.2-4.3,4.4-8.8,6.6-13.1c0.8-1.5,1.5-3,2.3-4.6c0-0.1,0.1-0.2,0.1-0.2c-0.1,0-0.3-0.1-0.5-0.1c-30.2-6.2-62.1-12.8-97.5-20.1
		c-0.6-0.1-1.1-0.2-1.6-0.2c-1.2,0-2.2,0.4-3.5,1.1c-22,14.2-44.1,28.4-65.5,42.2c-3.8,2.5-7.7,4.9-11.5,7.3
		c-0.8,0.5-1.7,1.1-2.5,1.6C71.8,182.2,76.7,184,81.6,185.8z M59.7,177.7c0,0,0.1,0,0.2,0c0.3,0,0.5-0.1,0.6-0.1
		c3-1.7,5.8-3.3,8.3-5c4.5-2.9,9.1-5.9,13.6-8.9c5.1-3.3,10.2-6.6,15.3-9.9c7.7-5,15.3-9.9,23-14.8c7.9-5.1,15.8-10.1,23.6-15.2
		c0.3-0.2,0.6-0.4,0.8-0.6c-0.2-3.1-0.6-6.3-1-9.7c0,0,0,0,0-0.1l-94.7,60.7C52.8,175.4,56.3,176.6,59.7,177.7
		C59.7,177.7,59.7,177.7,59.7,177.7z M295.1,137.5c-2.7,2.4-5,4.5-6.4,7.5c-1.5,3.4-3.2,6.8-4.9,10c-0.6,1.1-1.1,2.2-1.7,3.2
		c4.8-4.2,9.4-8.4,13.8-12.4c0.1-0.1,0.2-0.3,0.3-0.4c-0.2-2.6-0.5-5.2-0.8-8.1C295.2,137.4,295.1,137.5,295.1,137.5z M150,112.8
		c0.3,2.7,0.6,5.2,0.7,7.7c0.1,1.5,0.3,1.9,2.2,2.3c16.2,3.2,32.6,6.6,48.4,9.9l10.6,2.2c4,0.8,7.9,1.6,11.9,2.5
		c9,1.9,18.3,3.8,27.4,5.6c0,0,0.1,0,0.1,0c0.2,0,0.5,0,0.6-0.1c1.4-2.6,2.8-5.3,4.2-8.2c0.1-0.2,0.2-0.5,0.3-0.7l-106.5-22
		C149.9,112.3,149.9,112.6,150,112.8z M104.7,120.5c7.7-4.9,15.5-9.9,23.2-14.9c0.4-0.3,0.8-0.8,1.2-1.4
		C140.1,84.7,149,68.8,157.3,54c0.2-0.4,0.3-0.8,0.4-1.1c-2.2-4.3-4.5-8.5-6.9-13c-0.1-0.3-0.3-0.5-0.4-0.8L104.7,120.5z M146,95.9
		c0.5,0,0.9,0,1.4,0.1c22,4.4,44.3,9.1,66,13.5l6,1.3c14,2.9,28.5,5.9,42.8,8.9c0.3,0.1,0.6,0.1,0.9,0.1c0,0,0,0,0,0
		c0.3,0,0.5,0,1-1.1c2.1-4.5,4.4-9.1,6.6-13.5c1.2-2.3,2.3-4.6,3.5-7c2-4,3.9-7.9,5.9-12.1l1.6-3.3l-30.3-6.7
		c-28.6-6.4-58.2-13-87.3-19.5c-0.4-0.1-0.8-0.1-1-0.1c-0.4,0-0.6,0-1.2,1.1c-4.4,8.1-9,16.2-13.4,24.1c-1.9,3.3-3.7,6.6-5.6,10
		c-1.2,2.2-2.4,4.3-3.6,6.5c0.6-0.4,1.3-0.7,1.9-1.1C142.7,96.4,144.5,95.9,146,95.9z M156.4,37.8c0.9,1.8,1.8,3.5,2.7,5.2
		c0.9,1.7,1.9,3.6,2.8,5.4c0.8,1.6,1.7,2.2,3.6,2.7c27.8,6.1,56.1,12.4,83.5,18.5l9.6,2.1c3.2,0.7,6.4,1.4,9.7,2.2
		c4.9,1.1,9.7,2.2,14.6,3.3c0.2,0,0.4,0.1,0.6,0.2c0.3,0.1,0.7,0.2,0.9,0.2c0,0,0-0.1,0.1-0.1c1.4-2.9,2.8-5.8,4.3-8.9
		c0.2-0.5,0.5-1,0.7-1.5c-12.6-2.8-25.1-5.6-37.6-8.4C220.7,51.7,188.4,44.5,156.4,37.8z"/>
	<path class="st0" d="M44.4,201.8c-6.2-2.3-12.1-4.6-18-6.6c-1.9-0.7-2.8-1.7-3-3.6c-0.4-4.3-1-8.5-1.3-12.8c-0.1-1,0.6-2.6,1.4-3.2
		c14.4-9.4,28.5-19.2,43.4-27.8c9.4-5.4,15.4-12.9,20.4-22.2c15.2-27.9,30.9-55.6,46.4-83.3c3.5-6.2,7-12.4,10.4-18.5
		c0.8-1.4,1.5-2.1,3.3-1.7c18.4,4.2,36.9,8.2,55.3,12.3c33.9,7.6,67.9,15.2,101.8,22.7c2.2,0.5,3.7,1.5,4.8,3.5
		c2.6,5.2,5.4,10.3,8.3,15.3c1.2,2.1,1.2,3.7,0.1,5.8c-7.3,14.6-14.5,29.2-21.7,43.8c-0.4,0.9-0.8,1.8-1.3,3.2
		c5.3-0.1,4.6,3.8,4.9,6.9c0.2,2.2,0.2,4.4,0.8,6.5c1,3.7-0.3,6.1-3.1,8.5c-7.6,6.5-15,13.2-22.3,20c-2.1,2-3.6,4.7-4.9,7.4
		c-19.2,38.7-38.3,77.4-57.4,116.1c-3.3,6.6-6.6,13.2-9.8,19.9c-1,2.1-2.1,2.4-4.2,1.6c-52.5-20-105-39.9-157.5-59.8
		c-2.3-0.9-3.9-2.1-5-4.4c-2.6-5.1-5.3-10.1-8.1-15c-1.1-2-1.1-3.5,0-5.5C33.5,221.4,38.8,211.8,44.4,201.8z M62.8,180.3
		c0.1,0.3,0.1,0.6,0.2,1c0.8,0.3,1.6,0.7,2.4,1c10.9,4,21.7,8,32.6,11.9c26.1,9.6,52.2,19.1,78.2,28.8c3.2,1.2,5.2,0.6,7.6-1.6
		c18.6-17,37.3-33.9,56-50.8c1-0.9,2.3-1.8,2.9-3c3-5.8,5.9-11.8,8.9-17.7c1.1-2.1,0.6-3.1-2-3.6c-32.5-6.6-65-13.4-97.5-20.1
		c-2.5-0.5-4.5-0.1-6.7,1.3c-21.8,14.1-43.7,28.1-65.5,42.2C74.1,173.2,68.4,176.7,62.8,180.3z M285,81.4c-4.5-1-8.3-1.9-12.2-2.7
		c-36.1-8-72.1-16.1-108.2-24.2c-2.4-0.5-3.6,0-4.7,2.1c-6.2,11.4-12.6,22.7-19,34c-2.4,4.3-4.8,8.6-7.2,13c0.2,0.2,0.4,0.4,0.6,0.6
		c2.6-1.7,5.2-3.5,8-5c1.4-0.7,3.3-1.2,4.7-0.9c23.9,4.8,47.8,9.8,71.6,14.7c14.4,3,28.8,6,43.1,9c2.2,0.5,3.4-0.1,4.4-2.2
		c3.2-6.9,6.7-13.6,10.1-20.4C279,93.6,281.9,87.7,285,81.4z M29.3,233.1c1.8,0.8,3.2,1.4,4.6,1.9c22.3,8.5,44.7,16.9,67,25.4
		c28.7,10.9,57.4,21.8,86,32.8c2,0.8,2.9,0.6,3.9-1.5c16.8-34.3,33.7-68.5,50.6-102.7c6.8-13.9,13.7-27.7,20.6-41.6
		c12.6-25.5,25.3-51.1,37.9-76.6c1.8-3.6,3.6-7.3,5.5-11.2c-1.5-0.4-2.5-0.7-3.6-0.9c-35-7.8-70-15.6-105-23.4
		c-15.6-3.5-31.2-7.1-46.7-10.7c-2.7-0.6-4.2-0.1-5.5,2.5c-3.1,5.9-6.5,11.7-9.8,17.5c-14.8,26.3-29.5,52.7-44.2,79
		c-2.3,4.1-4.6,8.3-6.9,12.5c3-1.2,5.7-2.7,8.1-4.5c1.8-1.3,4-2.6,5-4.5c17.2-30.5,34.3-61,51.3-91.6c1.4-2.4,2.7-3.1,5.4-2.4
		c18,4.2,36,8.2,54,12.2c28,6.2,56,12.4,84,18.6c2.6,0.6,3.3,1.5,1.8,3.8c-0.3,0.5-0.5,1.1-0.8,1.6c-18.3,37-36.6,74-54.9,111
		c-16.7,33.9-33.5,67.7-50.2,101.6c-1.2,2.3-2.2,2.9-4.8,1.9c-36.2-13.9-72.5-27.6-108.7-41.4c-10.6-4-21.1-8.1-31.7-12
		c-2-0.8-2.5-1.7-1.3-3.5c0.9-1.3,1.6-2.8,2.4-4.2c3.2-5.7,6.4-11.5,9.7-17.5c-1.4-0.6-2.6-0.9-3.6-1.5c-2.4-1.3-3.8-0.7-4.9,1.8
		c-1,2.3-2.4,4.4-3.6,6.6C37.2,218.8,33.4,225.7,29.3,233.1z M307.1,61.1c-0.8,1.4-1.1,2-1.4,2.6c-6.1,12.3-12.1,24.6-18.2,36.8
		c-12.3,24.8-24.7,49.5-37,74.3c-5.4,10.9-10.6,21.9-16,32.8c-13.7,27.8-27.4,55.6-41.3,83.3c-1.6,3.2-1.6,5.8,0.3,8.8
		c2.5,4.1,4.6,8.5,7.1,13.1c0.7-1.1,1.1-1.5,1.4-2.1c2.9-5.9,5.8-11.8,8.8-17.7c21-42.4,42.1-84.9,63.1-127.3
		c5.5-11.1,10.8-22.3,16.3-33.4c8.3-16.9,16.7-33.7,25-50.5c0.6-1.2,1.4-2.9,0.9-3.8C313.4,72.5,310.4,67.1,307.1,61.1z M60.1,235.4
		c0.9,0.4,1.7,0.8,2.6,1.1c40,15.2,80,30.4,119.9,45.6c2.2,0.8,3.1,0.3,4.1-1.7c7.5-15.4,15.2-30.8,22.8-46.2
		c0.8-1.7,1.6-3.4,2.3-5.1c-1.1,0.2-1.7,0.7-2.3,1.3c-7.6,6.9-15.3,13.8-22.8,20.8c-1.5,1.4-2.8,1.8-4.8,1c-17-6.3-34-12.5-51-18.7
		c-18.6-6.8-37.2-13.6-55.7-20.5c-2-0.7-2.9-0.2-3.8,1.5c-3.4,6.2-6.9,12.4-10.4,18.6C60.8,233.8,60.5,234.6,60.1,235.4z
		 M240.4,172.5c-0.4-0.3-0.8-0.6-1.2-0.9c-0.9,1.1-1.6,2.3-2.6,3.2c-18,16.5-36,32.9-54,49.3c-1.4,1.3-2.7,1.6-4.6,0.9
		c-8.2-3.1-16.5-6.1-24.8-9.1c-33.9-12.4-67.9-24.9-101.8-37.3c-2.9-1-5.6-2.4-9-3.8c2.2-1.6,3.8-2.9,5.5-4
		c11.7-7.5,23.4-14.9,35.1-22.4c20.4-13.1,40.8-26.3,61.3-39.4c1.2-0.7,3-1,4.4-0.7c19.6,3.9,39.2,8,58.7,12
		c16.6,3.4,33.3,6.9,49.9,10.3c1,0.2,2.7,0.2,3.2-0.4c1.2-1.6,2-3.5,3.1-5.8c-4.4-0.9-8.2-1.7-12-2.5
		c-34.6-7.2-69.3-14.4-103.9-21.4c-1.6-0.3-3.8,0.1-5.3,0.9c-16.5,10.4-32.9,21-49.2,31.5c-20.6,13.2-41.2,26.5-61.8,39.7
		c-2,1.3-4,2.4-6.5,3.8c1.2,0.6,1.8,1,2.4,1.2c15,5.5,30,10.9,45,16.4c35.4,13,70.7,25.9,106.1,39c2.9,1.1,4.7,0.6,6.8-1.4
		c13.7-12.7,27.4-25.5,41.5-37.7C233.7,188,235.6,179.5,240.4,172.5z M30.9,236.1c-0.2,0.2-0.3,0.4-0.5,0.5
		c2.1,3.9,4.5,7.7,6.3,11.8c1.5,3.4,3.8,5.2,7.2,6.5c46.8,17.7,93.6,35.5,140.4,53.3c4.3,1.6,8.7,3.3,13.6,5.1
		c-0.4-1.2-0.5-1.8-0.8-2.3c-2.2-4.1-4.3-8.3-6.7-12.4c-0.9-1.4-2.4-2.8-3.9-3.4c-48.4-18.5-96.8-36.9-145.2-55.2
		C38,238.7,34.5,237.4,30.9,236.1z M292.9,65.5c-47.1-10.4-93.6-21.1-140.4-30.8c2.4,5.3,5.1,9.9,7.5,14.8c1.1,2.3,2.7,3.3,5.2,3.9
		c31,6.8,62.1,13.8,93.1,20.7c8.1,1.8,16.2,3.7,24.3,5.5c1.5,0.3,3.1,1.1,4.1-1C288.5,74.3,290.6,70.2,292.9,65.5z M183.1,250.2
		c-0.5-4.1-0.9-7.8-1.2-11.4c-0.1-1.9-1-2.8-2.7-3.4c-9-3.2-18-6.5-27-9.8c-38.7-14.2-77.5-28.4-116.2-42.6
		c-3.8-1.4-7.6-2.7-11.8-4.3c0.4,4.2,0.9,7.7,1.1,11.3c0.1,2,0.8,2.9,2.7,3.6c15.1,5.5,30.2,11,45.3,16.6
		c35.3,12.9,70.5,25.9,105.8,38.8C180.2,249.4,181.3,249.7,183.1,250.2z M259.8,132.5c-37.7-7.8-74.7-15.4-112.5-23.2
		c0.4,4.3,1,7.8,1.1,11.4c0.1,2.8,1.3,3.9,4,4.4c19.7,3.9,39.3,8,59,12.1c13.1,2.7,26.2,5.5,39.3,8.1c0.9,0.2,2.6-0.2,3-0.8
		C255.8,140.7,257.6,136.8,259.8,132.5z M44.8,174.4c0.6,0.5,0.9,0.9,1.2,1c4.3,1.5,8.6,3.1,13,4.5c0.7,0.2,1.8,0.1,2.5-0.3
		c2.9-1.6,5.7-3.3,8.5-5.1c9.6-6.2,19.2-12.6,28.8-18.8c15.5-10,31.1-20,46.6-30c0.8-0.5,1.9-1.4,1.8-2.1c-0.3-4.5-0.9-9-1.5-14
		C111.9,131.4,78.5,152.8,44.8,174.4z M98.7,126.6c1.2-0.5,1.5-0.5,1.7-0.7c9.6-6.1,19.2-12.3,28.7-18.5c0.8-0.5,1.5-1.4,1.9-2.2
		c9.4-16.7,18.8-33.4,28.1-50.2c0.5-0.9,0.9-2.3,0.5-3c-2.9-5.7-6.1-11.4-9.5-17.6C133,65.2,116.1,95.5,98.7,126.6z M228,196.4
		c-0.7,0-0.9,0-0.9,0c-14.2,12.9-28.4,25.8-42.5,38.7c-0.5,0.5-1,1.4-0.9,2c0.4,3.9,0.9,7.9,1.5,12.4c1.1-0.9,1.8-1.4,2.4-1.9
		c3-2.7,6-5.6,9.1-8.2c10.9-9.5,22.1-18.8,26.8-33.2c0.6-2,1.8-3.8,2.8-5.6C226.8,199.2,227.4,198,228,196.4z M71.6,211.8
		c-5-1.9-9.8-3.6-14.5-5.4c-1.8-0.7-2.8-0.4-3.8,1.4c-3.5,6.4-7.1,12.7-10.6,19.1c-0.3,0.5-0.3,1.1-0.6,1.9
		c5.2,1.9,10.2,3.8,15.3,5.5c0.6,0.2,1.8-0.4,2.1-0.9C63.5,226.3,67.4,219.2,71.6,211.8z M297.1,132.6c-4,4.1-8.3,6.6-10.4,11.5
		c-2.2,5.1-5,10-7.5,15c-1.3,2.5-2.4,5.1-3.6,7.6c7.7-6.2,14.8-12.7,21.9-19.2c0.5-0.5,1.1-1.4,1-2
		C298.1,141.4,297.6,137.4,297.1,132.6z"/>
</g>
<polygon class="st0" points="80.2,180 149.9,134.1 241.3,152 236.9,164.4 177.6,215 "/>
</svg>
